PathFileType	4	(X/Y/Z)	Patient4_TMGait_0pt4_03_left_38.trc.trc
DataRate	CameraRate	NumFrames	NumMarkers	Units	OrigDataRate	OrigDataStartFrame	OrigNumFrames
74.468085106383	74.468085106383	4	33	mm	74.468085106383	89	       141
Frame#	Time	Sacral			L.Shoulder			Chest			R.Shoulder			Neck			R.ASIS			L.ASIS			R.Thigh.Superior			R.Thigh.Lateral			R.Thigh.Inferior			R.Patella			L.Thigh.Superior			L.Thigh.Lateral			L.Thigh.Inferior			L.Patella			L.Shank.Superior			L.Shank.Lateral			L.Shank.Inferior			R.Shank.Superior			R.Shank.Lateral			R.Shank.Inferior			R.Heel			R.Midfoot.Superior			R.Midfoot.Lateral			R.Toe			L.Heel			L.Midfoot.Lateral			L.Midfoot.Superior			L.Toe			L.Elbow			L.Wrist			R.Elbow			R.Wrist			
		X1	Y1	Z1	X2	Y2	Z2	X3	Y3	Z3	X4	Y4	Z4	X5	Y5	Z5	X6	Y6	Z6	X7	Y7	Z7	X8	Y8	Z8	X9	Y9	Z9	X10	Y10	Z10	X11	Y11	Z11	X12	Y12	Z12	X13	Y13	Z13	X14	Y14	Z14	X15	Y15	Z15	X16	Y16	Z16	X17	Y17	Z17	X18	Y18	Z18	X19	Y19	Z19	X20	Y20	Z20	X21	Y21	Z21	X22	Y22	Z22	X23	Y23	Z23	X24	Y24	Z24	X25	Y25	Z25	X26	Y26	Z26	X27	Y27	Z27	X28	Y28	Z28	X29	Y29	Z29	X30	Y30	Z30	X31	Y31	Z31	X32	Y32	Z32	X33	Y33	Z33	

89	51.551714285714	890.355970952440	1001.178993458664	497.643310361577	1058.612991409946	1436.232684279507	321.617847882411	1157.530421242592	1373.162318562237	486.841039733334	1063.115225980739	1439.220926673507	658.303660744264	1028.129546805276	1496.201631416906	479.492172868186	1121.265268848501	942.136982916397	618.391670646288	1109.464931938358	968.912867659382	345.274882830903	1175.119235733634	746.385423799107	585.181645685029	1102.931929564508	633.400714308545	648.186494170685	1182.331378023440	586.375404143437	566.045845920906	1189.246995953403	499.174967284633	572.774430400179	1150.719356077143	747.340195302641	360.340632269167	1061.768911993258	634.150183908167	290.318706034113	1149.292796837655	549.584605936947	343.625773933318	1143.338317001249	466.897265671141	338.958381543976	1082.019186230552	406.282975326509	333.150694370641	947.476893798433	347.016243830687	284.782463169359	950.305096003380	217.374652056369	340.851062820303	1165.814519400021	408.724916365784	582.700076962628	1101.856762627856	302.971748309654	648.831250205149	1145.474285639729	208.764317563209	585.511833342790	1018.164486882191	42.517379139503	564.383887668163	1189.236862407315	97.641524854128	592.213511108285	1104.710079381288	37.247940801099	635.649486732206	1311.746957705978	47.957518874850	615.197422409343	772.386288238415	122.899239473009	380.899666617663	835.915736549833	85.448434260359	302.090627018770	936.508943104539	115.188053981884	322.757163176573	1033.608212881865	33.861015071097	298.217423130983	1072.842913654761	1089.019330303094	189.566319062018	1243.531957567845	891.146666417890	166.712974109936	1008.455247206603	1094.997541512071	779.754107919433	1090.909674550326	846.417046058328	778.750475998763	
90	51.565142857143	889.675014073868	1001.499604447803	501.889057293547	1056.349655562013	1436.966440266751	325.205917972441	1157.085473169458	1373.412545115102	489.171378596618	1064.739371495245	1439.119516894688	661.811337033014	1027.703331255407	1496.577122401026	483.479188521362	1121.425927228996	942.647482768952	620.537935049521	1107.223321089540	968.965099492945	347.702171403805	1173.191423936054	745.692162465350	588.266485030693	1099.555391593005	633.383804354461	650.802790073247	1178.525279333414	585.831649136409	568.638113058793	1184.486960678082	498.841768676613	574.990572551351	1155.059669182083	750.539815631992	362.711304462191	1071.396629300160	635.134712088134	291.337863987456	1161.827814974266	552.827279710751	344.508640758521	1157.400107390998	468.951615647461	339.102771699841	1094.208030375253	408.074189906200	333.323214989128	957.729830412933	353.514501033467	284.698289635926	956.164330730144	223.783065028228	340.337437908875	1161.029756776282	408.512677276004	584.609438089622	1096.902782523456	302.598638408680	650.262018056915	1140.388978349769	208.600944984605	586.403163618410	1012.798328022252	42.512481068382	564.497867237256	1183.962916026189	97.425693080235	592.544162207352	1099.354789412077	37.185846458101	635.803915368896	1306.476669300251	47.595041147647	615.379335443668	774.413018327952	138.194580961472	379.819693575490	836.119051025071	96.664866625817	301.390257457950	938.388946169161	120.796985746803	322.053898545551	1030.103134726021	33.194742507804	298.410894742162	1068.040907781329	1088.985476483046	194.728478715311	1228.414127703959	882.346864653574	172.239010589298	1019.297731431228	1093.755306809454	785.144185187188	1114.468690771080	849.833372522804	782.473960901255	
91	51.578571428571	888.817203212263	1001.761075240728	505.965837069551	1053.986845776052	1437.552481632780	328.598337046109	1156.555723107983	1373.534695490955	491.286085779822	1066.347128769876	1438.936025782350	665.116264291128	1027.265675519558	1496.876681698873	487.256037297635	1121.377234258594	943.095136397369	622.558188723113	1104.912440072550	968.907228695126	349.945984788793	1171.159593627039	745.074794919151	591.181078907119	1096.229932302237	633.382812408281	653.336498669372	1174.733172170538	585.325875108709	571.132459144358	1179.757220972268	498.542146555582	577.179888681688	1159.075583978301	754.007156132490	364.949522535761	1080.734536000885	636.601600249680	292.176981889049	1173.888872179040	556.701683369938	345.266298474916	1171.185231370193	471.775448683856	339.231586785186	1106.439819623175	410.451625445128	333.419732846669	968.315624500107	360.199433993882	284.518328049899	962.716165705090	230.487401408969	339.862214189187	1156.285806887035	408.315393878049	586.479517387907	1091.990916544342	302.258177274855	651.736021445076	1135.321366916582	208.458401048091	587.298807701026	1007.407819932053	42.530728620598	564.624629296742	1178.674623201572	97.228039290879	592.852543781630	1093.972433503053	37.131871507700	635.970969230680	1301.182637821383	47.198638055585	615.562777720307	777.648516919784	153.236308180349	378.771115981318	837.618009916261	108.082397061772	300.673420391322	941.297635458451	126.924161957635	321.465209232373	1027.912268775264	32.874436388231	298.544226454650	1062.621074114703	1088.764637658372	199.814711325358	1212.479942881773	874.098509315200	177.835113263860	1030.510093118570	1092.742998689692	790.341126173282	1138.508205419183	854.323494709624	785.650237160357	
92	51.592000000000	887.803840356677	1001.996062221849	509.846207073293	1051.581306208081	1438.012469350410	331.776264186494	1155.953926737409	1373.562594066621	493.194294263309	1067.902848283421	1438.708815972358	668.199386988942	1026.829498145985	1497.129534802820	490.789733086762	1121.134565874546	943.486040268334	624.464326450122	1102.585782542206	968.805385185695	352.025538372778	1169.050002685249	744.546519503226	593.861181079821	1093.007412698966	633.405604863353	655.746561358087	1170.993989601007	584.861824564695	573.470934792817	1175.110469073502	498.272477093597	579.286137392121	1162.661390014716	757.722203265769	367.060293206190	1089.521662295933	638.564517365034	292.878362752593	1185.213915955386	561.178005345704	345.879680463290	1184.412527731759	475.345085010676	339.285840028004	1118.467258672785	413.400587448990	333.408920671040	978.988031782845	366.862306975231	284.274828795181	969.930310479937	237.213330151672	339.413925079948	1151.618758800615	408.133676029494	588.266762678053	1087.140812689156	301.962739294913	653.211924980194	1130.287379400305	208.339391538489	588.180574935791	1002.005824527368	42.567537658273	564.765718672980	1173.378129064863	97.059337968377	593.145916204225	1088.573748370649	37.087914416939	636.150530573884	1295.869663040094	46.795094687556	615.749499637207	782.159644866186	167.247528594956	377.789119389927	840.601514701273	119.089369466358	299.951260239791	945.394214421619	133.277801454481	320.955923273406	1027.502730817944	33.026239741527	298.543540743171	1056.509743050257	1088.385021802073	204.830394407716	1195.797668481438	866.498141312567	183.492156027182	1042.044278713285	1092.004180786070	795.265129682489	1162.841777742310	859.948004296552	788.206333820161	
